<?xml version="1.0" encoding="UTF-8" standalone="no"?>
<!DOCTYPE svg PUBLIC "-//W3C//DTD SVG 1.1//EN"
 "http://www.w3.org/Graphics/SVG/1.1/DTD/svg11.dtd">
<!-- Generated by graphviz version 2.43.0 (0)
 -->
<!-- Title: G Pages: 1 -->
<svg width="1352pt" height="1077pt"
 viewBox="0.00 0.00 1352.20 1077.20" xmlns="http://www.w3.org/2000/svg" xmlns:xlink="http://www.w3.org/1999/xlink">
<g id="graph0" class="graph" transform="scale(1 1) rotate(0) translate(21.6 1055.6)">
<title>G</title>
<polygon fill="#111111" stroke="transparent" points="-21.6,21.6 -21.6,-1055.6 1330.6,-1055.6 1330.6,21.6 -21.6,21.6"/>
<!-- classes/entity.ts -->
<g id="node1" class="node">
<title>classes/entity.ts</title>
<path fill="none" stroke="#c6c5fe" d="M1013.83,-165.5C1013.83,-165.5 918.17,-165.5 918.17,-165.5 914.33,-165.5 910.5,-161.67 910.5,-157.83 910.5,-157.83 910.5,-150.17 910.5,-150.17 910.5,-146.33 914.33,-142.5 918.17,-142.5 918.17,-142.5 1013.83,-142.5 1013.83,-142.5 1017.67,-142.5 1021.5,-146.33 1021.5,-150.17 1021.5,-150.17 1021.5,-157.83 1021.5,-157.83 1021.5,-161.67 1017.67,-165.5 1013.83,-165.5"/>
<text text-anchor="middle" x="966" y="-150.3" font-family="Arial" font-size="14.00" fill="#c6c5fe">classes/entity.ts</text>
</g>
<!-- data/colors.ts -->
<g id="node2" class="node">
<title>data/colors.ts</title>
<path fill="none" stroke="#cfffac" d="M1290.33,-375.5C1290.33,-375.5 1208.67,-375.5 1208.67,-375.5 1204.83,-375.5 1201,-371.67 1201,-367.83 1201,-367.83 1201,-360.17 1201,-360.17 1201,-356.33 1204.83,-352.5 1208.67,-352.5 1208.67,-352.5 1290.33,-352.5 1290.33,-352.5 1294.17,-352.5 1298,-356.33 1298,-360.17 1298,-360.17 1298,-367.83 1298,-367.83 1298,-371.67 1294.17,-375.5 1290.33,-375.5"/>
<text text-anchor="middle" x="1249.5" y="-360.3" font-family="Arial" font-size="14.00" fill="#cfffac">data/colors.ts</text>
</g>
<!-- classes/entity.ts&#45;&gt;data/colors.ts -->
<g id="edge1" class="edge">
<title>classes/entity.ts&#45;&gt;data/colors.ts</title>
<path fill="none" stroke="#757575" d="M995.05,-142.44C1034.16,-128.34 1105.7,-110.06 1154,-142 1223.24,-187.78 1241.91,-295.7 1246.81,-342.13"/>
<polygon fill="#757575" stroke="#757575" points="1243.35,-342.67 1247.76,-352.3 1250.32,-342.01 1243.35,-342.67"/>
</g>
<!-- data/constants.ts -->
<g id="node3" class="node">
<title>data/constants.ts</title>
<path fill="none" stroke="#cfffac" d="M1301.33,-528.5C1301.33,-528.5 1197.67,-528.5 1197.67,-528.5 1193.83,-528.5 1190,-524.67 1190,-520.83 1190,-520.83 1190,-513.17 1190,-513.17 1190,-509.33 1193.83,-505.5 1197.67,-505.5 1197.67,-505.5 1301.33,-505.5 1301.33,-505.5 1305.17,-505.5 1309,-509.33 1309,-513.17 1309,-513.17 1309,-520.83 1309,-520.83 1309,-524.67 1305.17,-528.5 1301.33,-528.5"/>
<text text-anchor="middle" x="1249.5" y="-513.3" font-family="Arial" font-size="14.00" fill="#cfffac">data/constants.ts</text>
</g>
<!-- classes/entity.ts&#45;&gt;data/constants.ts -->
<g id="edge2" class="edge">
<title>classes/entity.ts&#45;&gt;data/constants.ts</title>
<path fill="none" stroke="#757575" d="M1021.83,-145.87C1063.58,-142.99 1119.56,-146.77 1154,-180 1220.57,-244.23 1163.06,-296.5 1190,-385 1202.44,-425.86 1224.23,-470.8 1237.42,-496.29"/>
<polygon fill="#757575" stroke="#757575" points="1234.43,-498.13 1242.17,-505.36 1240.63,-494.88 1234.43,-498.13"/>
</g>
<!-- data/tiles.ts -->
<g id="node4" class="node">
<title>data/tiles.ts</title>
<path fill="none" stroke="#c6c5fe" d="M1146.33,-337.5C1146.33,-337.5 1076.67,-337.5 1076.67,-337.5 1072.83,-337.5 1069,-333.67 1069,-329.83 1069,-329.83 1069,-322.17 1069,-322.17 1069,-318.33 1072.83,-314.5 1076.67,-314.5 1076.67,-314.5 1146.33,-314.5 1146.33,-314.5 1150.17,-314.5 1154,-318.33 1154,-322.17 1154,-322.17 1154,-329.83 1154,-329.83 1154,-333.67 1150.17,-337.5 1146.33,-337.5"/>
<text text-anchor="middle" x="1111.5" y="-322.3" font-family="Arial" font-size="14.00" fill="#c6c5fe">data/tiles.ts</text>
</g>
<!-- classes/entity.ts&#45;&gt;data/tiles.ts -->
<g id="edge3" class="edge">
<title>classes/entity.ts&#45;&gt;data/tiles.ts</title>
<path fill="none" stroke="#757575" d="M980.33,-165.63C994.17,-177.99 1016.11,-198.42 1033,-218 1057.92,-246.9 1082.99,-283.53 1097.61,-305.85"/>
<polygon fill="#757575" stroke="#757575" points="1094.83,-307.98 1103.21,-314.47 1100.7,-304.17 1094.83,-307.98"/>
</g>
<!-- data/tiles.ts&#45;&gt;data/colors.ts -->
<g id="edge7" class="edge">
<title>data/tiles.ts&#45;&gt;data/colors.ts</title>
<path fill="none" stroke="#757575" d="M1153.67,-337.5C1167.39,-341.34 1182.85,-345.66 1197.24,-349.68"/>
<polygon fill="#757575" stroke="#757575" points="1196.42,-353.08 1207,-352.4 1198.31,-346.34 1196.42,-353.08"/>
</g>
<!-- data/tiles.ts&#45;&gt;data/constants.ts -->
<g id="edge8" class="edge">
<title>data/tiles.ts&#45;&gt;data/constants.ts</title>
<path fill="none" stroke="#757575" d="M1120.8,-337.66C1143.38,-369.37 1206.09,-457.45 1234.36,-497.15"/>
<polygon fill="#757575" stroke="#757575" points="1231.65,-499.38 1240.31,-505.49 1237.36,-495.32 1231.65,-499.38"/>
</g>
<!-- classes/map.ts -->
<g id="node5" class="node">
<title>classes/map.ts</title>
<path fill="none" stroke="#c6c5fe" d="M845.33,-241.5C845.33,-241.5 753.67,-241.5 753.67,-241.5 749.83,-241.5 746,-237.67 746,-233.83 746,-233.83 746,-226.17 746,-226.17 746,-222.33 749.83,-218.5 753.67,-218.5 753.67,-218.5 845.33,-218.5 845.33,-218.5 849.17,-218.5 853,-222.33 853,-226.17 853,-226.17 853,-233.83 853,-233.83 853,-237.67 849.17,-241.5 845.33,-241.5"/>
<text text-anchor="middle" x="799.5" y="-226.3" font-family="Arial" font-size="14.00" fill="#c6c5fe">classes/map.ts</text>
</g>
<!-- classes/map.ts&#45;&gt;classes/entity.ts -->
<g id="edge4" class="edge">
<title>classes/map.ts&#45;&gt;classes/entity.ts</title>
<path fill="none" stroke="#757575" d="M831.57,-218.46C841.78,-214.31 853.05,-209.32 863,-204 879.96,-194.93 881.96,-188.91 899,-180 906.29,-176.19 914.28,-172.59 922.09,-169.36"/>
<polygon fill="#757575" stroke="#757575" points="923.5,-172.57 931.49,-165.62 920.9,-166.07 923.5,-172.57"/>
</g>
<!-- classes/map.ts&#45;&gt;data/constants.ts -->
<g id="edge5" class="edge">
<title>classes/map.ts&#45;&gt;data/constants.ts</title>
<path fill="none" stroke="#757575" d="M853.46,-219.72C901.42,-212.54 973.46,-207.1 1033,-225 1094.74,-243.56 1112.32,-255.81 1154,-305 1154.84,-305.99 1215.64,-442.94 1239.26,-496.17"/>
<polygon fill="#757575" stroke="#757575" points="1236.08,-497.64 1243.34,-505.36 1242.48,-494.8 1236.08,-497.64"/>
</g>
<!-- classes/map.ts&#45;&gt;data/tiles.ts -->
<g id="edge6" class="edge">
<title>classes/map.ts&#45;&gt;data/tiles.ts</title>
<path fill="none" stroke="#757575" d="M853.24,-226.89C902,-226.05 975.41,-230.07 1033,-256 1058.2,-267.34 1080.87,-290 1095.08,-306.47"/>
<polygon fill="#757575" stroke="#757575" points="1092.62,-308.99 1101.72,-314.43 1098,-304.5 1092.62,-308.99"/>
</g>
<!-- main.ts -->
<g id="node6" class="node">
<title>main.ts</title>
<path fill="none" stroke="#c6c5fe" d="M53.33,-507.5C53.33,-507.5 7.67,-507.5 7.67,-507.5 3.83,-507.5 0,-503.67 0,-499.83 0,-499.83 0,-492.17 0,-492.17 0,-488.33 3.83,-484.5 7.67,-484.5 7.67,-484.5 53.33,-484.5 53.33,-484.5 57.17,-484.5 61,-488.33 61,-492.17 61,-492.17 61,-499.83 61,-499.83 61,-503.67 57.17,-507.5 53.33,-507.5"/>
<text text-anchor="middle" x="30.5" y="-492.3" font-family="Arial" font-size="14.00" fill="#c6c5fe">main.ts</text>
</g>
<!-- modules/engine.ts -->
<g id="node7" class="node">
<title>modules/engine.ts</title>
<path fill="none" stroke="#c6c5fe" d="M216.33,-507.5C216.33,-507.5 104.67,-507.5 104.67,-507.5 100.83,-507.5 97,-503.67 97,-499.83 97,-499.83 97,-492.17 97,-492.17 97,-488.33 100.83,-484.5 104.67,-484.5 104.67,-484.5 216.33,-484.5 216.33,-484.5 220.17,-484.5 224,-488.33 224,-492.17 224,-492.17 224,-499.83 224,-499.83 224,-503.67 220.17,-507.5 216.33,-507.5"/>
<text text-anchor="middle" x="160.5" y="-492.3" font-family="Arial" font-size="14.00" fill="#c6c5fe">modules/engine.ts</text>
</g>
<!-- main.ts&#45;&gt;modules/engine.ts -->
<g id="edge9" class="edge">
<title>main.ts&#45;&gt;modules/engine.ts</title>
<path fill="none" stroke="#757575" d="M61.19,-496C68.97,-496 77.71,-496 86.69,-496"/>
<polygon fill="#757575" stroke="#757575" points="86.88,-499.5 96.88,-496 86.88,-492.5 86.88,-499.5"/>
</g>
<!-- modules/engine.ts&#45;&gt;data/colors.ts -->
<g id="edge19" class="edge">
<title>modules/engine.ts&#45;&gt;data/colors.ts</title>
<path fill="none" stroke="#757575" d="M161.83,-484.32C163.72,-436.86 176.37,-255.5 260,-142 329.14,-48.16 363.94,0 480.5,0 480.5,0 480.5,0 967,0 1004.31,0 1142.75,-66.48 1154,-79 1224.61,-157.56 1242.65,-290.31 1247.1,-342.25"/>
<polygon fill="#757575" stroke="#757575" points="1243.62,-342.62 1247.87,-352.32 1250.6,-342.08 1243.62,-342.62"/>
</g>
<!-- modules/engine.ts&#45;&gt;data/constants.ts -->
<g id="edge20" class="edge">
<title>modules/engine.ts&#45;&gt;data/constants.ts</title>
<path fill="none" stroke="#757575" d="M162.58,-507.74C170.54,-586.41 226.95,-1034 480.5,-1034 480.5,-1034 480.5,-1034 967,-1034 1057.93,-1034 1096.56,-1021.49 1154,-951 1207.04,-885.9 1238.23,-617.46 1246.36,-538.77"/>
<polygon fill="#757575" stroke="#757575" points="1249.86,-538.89 1247.39,-528.58 1242.9,-538.18 1249.86,-538.89"/>
</g>
<!-- modules/controls.ts -->
<g id="node8" class="node">
<title>modules/controls.ts</title>
<path fill="none" stroke="#c6c5fe" d="M1025.33,-587.5C1025.33,-587.5 906.67,-587.5 906.67,-587.5 902.83,-587.5 899,-583.67 899,-579.83 899,-579.83 899,-572.17 899,-572.17 899,-568.33 902.83,-564.5 906.67,-564.5 906.67,-564.5 1025.33,-564.5 1025.33,-564.5 1029.17,-564.5 1033,-568.33 1033,-572.17 1033,-572.17 1033,-579.83 1033,-579.83 1033,-583.67 1029.17,-587.5 1025.33,-587.5"/>
<text text-anchor="middle" x="966" y="-572.3" font-family="Arial" font-size="14.00" fill="#c6c5fe">modules/controls.ts</text>
</g>
<!-- modules/engine.ts&#45;&gt;modules/controls.ts -->
<g id="edge21" class="edge">
<title>modules/engine.ts&#45;&gt;modules/controls.ts</title>
<path fill="none" stroke="#757575" d="M169.6,-507.66C184.9,-528.82 220.08,-573.71 260,-599 324.11,-639.62 347.09,-640.84 422,-653 615.81,-684.45 676.07,-687.07 863,-627 889.36,-618.53 917.36,-604.09 937.34,-592.74"/>
<polygon fill="#757575" stroke="#757575" points="939.29,-595.65 946.19,-587.61 935.79,-589.59 939.29,-595.65"/>
</g>
<!-- modules/display.ts -->
<g id="node10" class="node">
<title>modules/display.ts</title>
<path fill="none" stroke="#c6c5fe" d="M1022.33,-857.5C1022.33,-857.5 909.67,-857.5 909.67,-857.5 905.83,-857.5 902,-853.67 902,-849.83 902,-849.83 902,-842.17 902,-842.17 902,-838.33 905.83,-834.5 909.67,-834.5 909.67,-834.5 1022.33,-834.5 1022.33,-834.5 1026.17,-834.5 1030,-838.33 1030,-842.17 1030,-842.17 1030,-849.83 1030,-849.83 1030,-853.67 1026.17,-857.5 1022.33,-857.5"/>
<text text-anchor="middle" x="966" y="-842.3" font-family="Arial" font-size="14.00" fill="#c6c5fe">modules/display.ts</text>
</g>
<!-- modules/engine.ts&#45;&gt;modules/display.ts -->
<g id="edge22" class="edge">
<title>modules/engine.ts&#45;&gt;modules/display.ts</title>
<path fill="none" stroke="#757575" d="M167.79,-507.55C181.96,-532.9 218.4,-594.56 260,-637 382.03,-761.49 411.24,-814.01 577,-868 693.65,-905.99 840.34,-878.91 915.55,-860.04"/>
<polygon fill="#757575" stroke="#757575" points="916.42,-863.43 925.23,-857.55 914.68,-856.65 916.42,-863.43"/>
</g>
<!-- modules/effects.ts -->
<g id="node11" class="node">
<title>modules/effects.ts</title>
<path fill="none" stroke="#c6c5fe" d="M378.33,-589.5C378.33,-589.5 267.67,-589.5 267.67,-589.5 263.83,-589.5 260,-585.67 260,-581.83 260,-581.83 260,-574.17 260,-574.17 260,-570.33 263.83,-566.5 267.67,-566.5 267.67,-566.5 378.33,-566.5 378.33,-566.5 382.17,-566.5 386,-570.33 386,-574.17 386,-574.17 386,-581.83 386,-581.83 386,-585.67 382.17,-589.5 378.33,-589.5"/>
<text text-anchor="middle" x="323" y="-574.3" font-family="Arial" font-size="14.00" fill="#c6c5fe">modules/effects.ts</text>
</g>
<!-- modules/engine.ts&#45;&gt;modules/effects.ts -->
<g id="edge23" class="edge">
<title>modules/engine.ts&#45;&gt;modules/effects.ts</title>
<path fill="none" stroke="#757575" d="M177.18,-507.61C196.04,-521.16 229.06,-543.55 260,-558 263.75,-559.75 267.69,-561.41 271.69,-562.96"/>
<polygon fill="#757575" stroke="#757575" points="270.49,-566.25 281.08,-566.41 272.9,-559.68 270.49,-566.25"/>
</g>
<!-- modules/screen.ts -->
<g id="node12" class="node">
<title>modules/screen.ts</title>
<path fill="none" stroke="#ff6c60" d="M855.33,-440.5C855.33,-440.5 743.67,-440.5 743.67,-440.5 739.83,-440.5 736,-436.67 736,-432.83 736,-432.83 736,-425.17 736,-425.17 736,-421.33 739.83,-417.5 743.67,-417.5 743.67,-417.5 855.33,-417.5 855.33,-417.5 859.17,-417.5 863,-421.33 863,-425.17 863,-425.17 863,-432.83 863,-432.83 863,-436.67 859.17,-440.5 855.33,-440.5"/>
<text text-anchor="middle" x="799.5" y="-425.3" font-family="Arial" font-size="14.00" fill="#ff6c60">modules/screen.ts</text>
</g>
<!-- modules/engine.ts&#45;&gt;modules/screen.ts -->
<g id="edge27" class="edge">
<title>modules/engine.ts&#45;&gt;modules/screen.ts</title>
<path fill="none" stroke="#757575" d="M171.9,-484.37C188.75,-466.15 223.8,-430.85 260,-410 325.89,-372.05 346.98,-367.39 422,-355 544.57,-334.76 581.73,-346.01 700,-384 716.85,-389.41 719.93,-393.6 736,-401 744.73,-405.01 754.17,-409.28 763.01,-413.25"/>
<polygon fill="#757575" stroke="#757575" points="761.74,-416.51 772.3,-417.4 764.6,-410.12 761.74,-416.51"/>
</g>
<!-- modules/world.ts -->
<g id="node14" class="node">
<title>modules/world.ts</title>
<path fill="none" stroke="#ff6c60" d="M533.33,-386.5C533.33,-386.5 429.67,-386.5 429.67,-386.5 425.83,-386.5 422,-382.67 422,-378.83 422,-378.83 422,-371.17 422,-371.17 422,-367.33 425.83,-363.5 429.67,-363.5 429.67,-363.5 533.33,-363.5 533.33,-363.5 537.17,-363.5 541,-367.33 541,-371.17 541,-371.17 541,-378.83 541,-378.83 541,-382.67 537.17,-386.5 533.33,-386.5"/>
<text text-anchor="middle" x="481.5" y="-371.3" font-family="Arial" font-size="14.00" fill="#ff6c60">modules/world.ts</text>
</g>
<!-- modules/engine.ts&#45;&gt;modules/world.ts -->
<g id="edge28" class="edge">
<title>modules/engine.ts&#45;&gt;modules/world.ts</title>
<path fill="none" stroke="#757575" d="M192.09,-484.4C250.08,-462.4 376,-414.64 440.56,-390.15"/>
<polygon fill="#757575" stroke="#757575" points="441.9,-393.39 450.01,-386.57 439.41,-386.84 441.9,-393.39"/>
</g>
<!-- modules/levels.ts -->
<g id="node15" class="node">
<title>modules/levels.ts</title>
<path fill="none" stroke="#ff6c60" d="M691.33,-299.5C691.33,-299.5 585.67,-299.5 585.67,-299.5 581.83,-299.5 578,-295.67 578,-291.83 578,-291.83 578,-284.17 578,-284.17 578,-280.33 581.83,-276.5 585.67,-276.5 585.67,-276.5 691.33,-276.5 691.33,-276.5 695.17,-276.5 699,-280.33 699,-284.17 699,-284.17 699,-291.83 699,-291.83 699,-295.67 695.17,-299.5 691.33,-299.5"/>
<text text-anchor="middle" x="638.5" y="-284.3" font-family="Arial" font-size="14.00" fill="#ff6c60">modules/levels.ts</text>
</g>
<!-- modules/engine.ts&#45;&gt;modules/levels.ts -->
<g id="edge24" class="edge">
<title>modules/engine.ts&#45;&gt;modules/levels.ts</title>
<path fill="none" stroke="#757575" d="M163.9,-484.03C171.34,-450.5 197.34,-355.37 260,-314 355.03,-251.26 494.44,-261.56 574.56,-274.76"/>
<polygon fill="#757575" stroke="#757575" points="574.06,-278.22 584.51,-276.46 575.24,-271.32 574.06,-278.22"/>
</g>
<!-- modules/mobs.ts -->
<g id="node16" class="node">
<title>modules/mobs.ts</title>
<path fill="none" stroke="#c6c5fe" d="M375.33,-174.5C375.33,-174.5 270.67,-174.5 270.67,-174.5 266.83,-174.5 263,-170.67 263,-166.83 263,-166.83 263,-159.17 263,-159.17 263,-155.33 266.83,-151.5 270.67,-151.5 270.67,-151.5 375.33,-151.5 375.33,-151.5 379.17,-151.5 383,-155.33 383,-159.17 383,-159.17 383,-166.83 383,-166.83 383,-170.67 379.17,-174.5 375.33,-174.5"/>
<text text-anchor="middle" x="323" y="-159.3" font-family="Arial" font-size="14.00" fill="#c6c5fe">modules/mobs.ts</text>
</g>
<!-- modules/engine.ts&#45;&gt;modules/mobs.ts -->
<g id="edge25" class="edge">
<title>modules/engine.ts&#45;&gt;modules/mobs.ts</title>
<path fill="none" stroke="#757575" d="M164.48,-484.34C174.37,-446.81 208.45,-326.44 260,-238 272.06,-217.31 289.77,-196.54 303.18,-182.12"/>
<polygon fill="#757575" stroke="#757575" points="305.78,-184.46 310.12,-174.8 300.7,-179.65 305.78,-184.46"/>
</g>
<!-- modules/player.ts -->
<g id="node17" class="node">
<title>modules/player.ts</title>
<path fill="none" stroke="#c6c5fe" d="M376.33,-548.5C376.33,-548.5 269.67,-548.5 269.67,-548.5 265.83,-548.5 262,-544.67 262,-540.83 262,-540.83 262,-533.17 262,-533.17 262,-529.33 265.83,-525.5 269.67,-525.5 269.67,-525.5 376.33,-525.5 376.33,-525.5 380.17,-525.5 384,-529.33 384,-533.17 384,-533.17 384,-540.83 384,-540.83 384,-544.67 380.17,-548.5 376.33,-548.5"/>
<text text-anchor="middle" x="323" y="-533.3" font-family="Arial" font-size="14.00" fill="#c6c5fe">modules/player.ts</text>
</g>
<!-- modules/engine.ts&#45;&gt;modules/player.ts -->
<g id="edge26" class="edge">
<title>modules/engine.ts&#45;&gt;modules/player.ts</title>
<path fill="none" stroke="#757575" d="M206.64,-507.53C225.43,-512.33 247.43,-517.95 267.15,-522.99"/>
<polygon fill="#757575" stroke="#757575" points="266.37,-526.4 276.93,-525.49 268.1,-519.62 266.37,-526.4"/>
</g>
<!-- modules/controls.ts&#45;&gt;data/constants.ts -->
<g id="edge10" class="edge">
<title>modules/controls.ts&#45;&gt;data/constants.ts</title>
<path fill="none" stroke="#757575" d="M1033.37,-570C1069.38,-565.94 1114.49,-559.55 1154,-550 1172.92,-545.43 1193.38,-538.54 1210.4,-532.24"/>
<polygon fill="#757575" stroke="#757575" points="1211.87,-535.42 1219.99,-528.61 1209.4,-528.87 1211.87,-535.42"/>
</g>
<!-- utils/utils.ts -->
<g id="node9" class="node">
<title>utils/utils.ts</title>
<path fill="none" stroke="#cfffac" d="M1145.33,-665.5C1145.33,-665.5 1077.67,-665.5 1077.67,-665.5 1073.83,-665.5 1070,-661.67 1070,-657.83 1070,-657.83 1070,-650.17 1070,-650.17 1070,-646.33 1073.83,-642.5 1077.67,-642.5 1077.67,-642.5 1145.33,-642.5 1145.33,-642.5 1149.17,-642.5 1153,-646.33 1153,-650.17 1153,-650.17 1153,-657.83 1153,-657.83 1153,-661.67 1149.17,-665.5 1145.33,-665.5"/>
<text text-anchor="middle" x="1111.5" y="-650.3" font-family="Arial" font-size="14.00" fill="#cfffac">utils/utils.ts</text>
</g>
<!-- modules/controls.ts&#45;&gt;utils/utils.ts -->
<g id="edge11" class="edge">
<title>modules/controls.ts&#45;&gt;utils/utils.ts</title>
<path fill="none" stroke="#757575" d="M1000.52,-587.6C1011.13,-591.69 1022.75,-596.62 1033,-602 1052.07,-612 1072.23,-625.64 1087.21,-636.43"/>
<polygon fill="#757575" stroke="#757575" points="1085.24,-639.33 1095.38,-642.42 1089.38,-633.68 1085.24,-639.33"/>
</g>
<!-- modules/display.ts&#45;&gt;data/colors.ts -->
<g id="edge12" class="edge">
<title>modules/display.ts&#45;&gt;data/colors.ts</title>
<path fill="none" stroke="#757575" d="M1030.35,-855.23C1071.33,-857.36 1122.68,-852.18 1154,-820 1204.37,-768.24 1171.25,-566.74 1190,-497 1201.16,-455.5 1223.38,-410.32 1236.99,-384.75"/>
<polygon fill="#757575" stroke="#757575" points="1240.23,-386.12 1241.91,-375.66 1234.07,-382.79 1240.23,-386.12"/>
</g>
<!-- modules/display.ts&#45;&gt;data/constants.ts -->
<g id="edge13" class="edge">
<title>modules/display.ts&#45;&gt;data/constants.ts</title>
<path fill="none" stroke="#757575" d="M993.35,-857.54C1032.65,-872.77 1107,-893.74 1154,-858 1206.22,-818.28 1237.09,-607.43 1245.88,-538.69"/>
<polygon fill="#757575" stroke="#757575" points="1249.38,-538.94 1247.14,-528.58 1242.43,-538.07 1249.38,-538.94"/>
</g>
<!-- modules/effects.ts&#45;&gt;data/constants.ts -->
<g id="edge14" class="edge">
<title>modules/effects.ts&#45;&gt;data/constants.ts</title>
<path fill="none" stroke="#757575" d="M323.83,-589.74C323.86,-635.7 330.38,-805.1 422,-890 457.59,-922.98 786.95,-958 798.5,-958 798.5,-958 798.5,-958 967,-958 1052.28,-958 1093.48,-975.09 1154,-915 1208.53,-860.86 1238.39,-613.88 1246.33,-538.75"/>
<polygon fill="#757575" stroke="#757575" points="1249.83,-538.89 1247.38,-528.58 1242.87,-538.17 1249.83,-538.89"/>
</g>
<!-- modules/effects.ts&#45;&gt;data/tiles.ts -->
<g id="edge15" class="edge">
<title>modules/effects.ts&#45;&gt;data/tiles.ts</title>
<path fill="none" stroke="#757575" d="M334.3,-589.75C350.74,-607.5 384.87,-640.42 422,-653 680.28,-740.49 830.43,-779.55 1033,-597 1106.66,-530.62 1112.27,-399.54 1111.4,-347.77"/>
<polygon fill="#757575" stroke="#757575" points="1114.9,-347.61 1111.13,-337.71 1107.9,-347.8 1114.9,-347.61"/>
</g>
<!-- modules/effects.ts&#45;&gt;modules/screen.ts -->
<g id="edge16" class="edge">
<title>modules/effects.ts&#45;&gt;modules/screen.ts</title>
<path fill="none" stroke="#757575" d="M382.41,-589.5C459.91,-601.69 598.74,-612.55 700,-559 711.89,-552.71 760.4,-484.13 784.61,-449.2"/>
<polygon fill="#757575" stroke="#757575" points="787.67,-450.93 790.48,-440.71 781.92,-446.95 787.67,-450.93"/>
</g>
<!-- modules/sound.ts -->
<g id="node13" class="node">
<title>modules/sound.ts</title>
<path fill="none" stroke="#c6c5fe" d="M692.33,-549.5C692.33,-549.5 584.67,-549.5 584.67,-549.5 580.83,-549.5 577,-545.67 577,-541.83 577,-541.83 577,-534.17 577,-534.17 577,-530.33 580.83,-526.5 584.67,-526.5 584.67,-526.5 692.33,-526.5 692.33,-526.5 696.17,-526.5 700,-530.33 700,-534.17 700,-534.17 700,-541.83 700,-541.83 700,-545.67 696.17,-549.5 692.33,-549.5"/>
<text text-anchor="middle" x="638.5" y="-534.3" font-family="Arial" font-size="14.00" fill="#c6c5fe">modules/sound.ts</text>
</g>
<!-- modules/effects.ts&#45;&gt;modules/sound.ts -->
<g id="edge17" class="edge">
<title>modules/effects.ts&#45;&gt;modules/sound.ts</title>
<path fill="none" stroke="#757575" d="M386.18,-568.91C398.07,-567.23 410.41,-565.53 422,-564 470.15,-557.66 524.43,-551.11 566.47,-546.17"/>
<polygon fill="#757575" stroke="#757575" points="567.09,-549.63 576.61,-544.99 566.27,-542.67 567.09,-549.63"/>
</g>
<!-- modules/effects.ts&#45;&gt;modules/world.ts -->
<g id="edge18" class="edge">
<title>modules/effects.ts&#45;&gt;modules/world.ts</title>
<path fill="none" stroke="#757575" d="M372.7,-566.5C377.49,-564.16 382.03,-561.36 386,-558 437.64,-514.23 464.58,-435.12 475.12,-396.87"/>
<polygon fill="#757575" stroke="#757575" points="478.6,-397.38 477.76,-386.82 471.83,-395.6 478.6,-397.38"/>
</g>
<!-- modules/screen.ts&#45;&gt;classes/entity.ts -->
<g id="edge50" class="edge">
<title>modules/screen.ts&#45;&gt;classes/entity.ts</title>
<path fill="none" stroke="#757575" d="M807.57,-417.18C833.04,-374.61 920.3,-228.72 952.73,-174.5"/>
<polygon fill="#757575" stroke="#757575" points="955.83,-176.15 957.96,-165.77 949.82,-172.56 955.83,-176.15"/>
</g>
<!-- modules/screen.ts&#45;&gt;data/colors.ts -->
<g id="edge51" class="edge">
<title>modules/screen.ts&#45;&gt;data/colors.ts</title>
<path fill="none" stroke="#757575" d="M863.26,-419.89C950.39,-407.25 1106.74,-384.57 1190.98,-372.35"/>
<polygon fill="#757575" stroke="#757575" points="1191.49,-375.81 1200.89,-370.91 1190.49,-368.88 1191.49,-375.81"/>
</g>
<!-- modules/screen.ts&#45;&gt;data/constants.ts -->
<g id="edge52" class="edge">
<title>modules/screen.ts&#45;&gt;data/constants.ts</title>
<path fill="none" stroke="#757575" d="M820.93,-440.58C840.37,-451.06 870.78,-466.02 899,-474 994.04,-500.86 1108.32,-510.95 1179.7,-514.73"/>
<polygon fill="#757575" stroke="#757575" points="1179.75,-518.24 1189.91,-515.24 1180.1,-511.25 1179.75,-518.24"/>
</g>
<!-- modules/screen.ts&#45;&gt;data/tiles.ts -->
<g id="edge53" class="edge">
<title>modules/screen.ts&#45;&gt;data/tiles.ts</title>
<path fill="none" stroke="#757575" d="M816.02,-417.44C834.75,-404.04 867.62,-382.26 899,-370 951.39,-349.53 1014.99,-337.95 1058.68,-331.86"/>
<polygon fill="#757575" stroke="#757575" points="1059.34,-335.3 1068.78,-330.5 1058.41,-328.36 1059.34,-335.3"/>
</g>
<!-- modules/screen.ts&#45;&gt;modules/controls.ts -->
<g id="edge54" class="edge">
<title>modules/screen.ts&#45;&gt;modules/controls.ts</title>
<path fill="none" stroke="#757575" d="M813.41,-440.53C841.74,-465.85 909.57,-526.47 944.08,-557.3"/>
<polygon fill="#757575" stroke="#757575" points="941.91,-560.06 951.69,-564.11 946.57,-554.84 941.91,-560.06"/>
</g>
<!-- modules/screen.ts&#45;&gt;utils/utils.ts -->
<g id="edge57" class="edge">
<title>modules/screen.ts&#45;&gt;utils/utils.ts</title>
<path fill="none" stroke="#757575" d="M803.97,-440.89C813.59,-471.71 843.63,-554.75 899,-597 924.06,-616.13 1005.39,-634.39 1059.58,-644.88"/>
<polygon fill="#757575" stroke="#757575" points="1059.22,-648.38 1069.7,-646.81 1060.53,-641.5 1059.22,-648.38"/>
</g>
<!-- modules/screen.ts&#45;&gt;modules/display.ts -->
<g id="edge55" class="edge">
<title>modules/screen.ts&#45;&gt;modules/display.ts</title>
<path fill="none" stroke="#757575" d="M805.07,-440.59C827.62,-497.75 927.1,-749.93 956.68,-824.91"/>
<polygon fill="#757575" stroke="#757575" points="953.45,-826.25 960.37,-834.27 959.96,-823.68 953.45,-826.25"/>
</g>
<!-- modules/screen.ts&#45;&gt;modules/world.ts -->
<g id="edge56" class="edge">
<title>modules/screen.ts&#45;&gt;modules/world.ts</title>
<path fill="none" stroke="#757575" d="M735.82,-423.89C723.95,-421.58 711.61,-419.12 700,-417 641.79,-406.39 574.37,-396.53 530.21,-388.41"/>
<polygon fill="#757575" stroke="#757575" points="530.81,-384.96 520.33,-386.55 529.51,-391.84 530.81,-384.96"/>
</g>
<!-- modules/sound.ts&#45;&gt;utils/utils.ts -->
<g id="edge58" class="edge">
<title>modules/sound.ts&#45;&gt;utils/utils.ts</title>
<path fill="none" stroke="#757575" d="M648.2,-549.65C663.62,-569.4 697.71,-609.32 736,-630 853.08,-693.25 900.45,-679.88 1033,-668 1041.71,-667.22 1050.9,-665.96 1059.79,-664.5"/>
<polygon fill="#757575" stroke="#757575" points="1060.41,-667.94 1069.66,-662.79 1059.21,-661.05 1060.41,-667.94"/>
</g>
<!-- modules/world.ts&#45;&gt;classes/entity.ts -->
<g id="edge59" class="edge">
<title>modules/world.ts&#45;&gt;classes/entity.ts</title>
<path fill="none" stroke="#757575" d="M485.69,-363.17C494.58,-332.51 522.66,-249.92 577,-208 670.83,-135.62 816.66,-136.75 900.25,-144.86"/>
<polygon fill="#757575" stroke="#757575" points="900.07,-148.36 910.38,-145.9 900.79,-141.39 900.07,-148.36"/>
</g>
<!-- modules/world.ts&#45;&gt;data/constants.ts -->
<g id="edge61" class="edge">
<title>modules/world.ts&#45;&gt;data/constants.ts</title>
<path fill="none" stroke="#757575" d="M528.84,-386.59C533.04,-388.2 537.15,-390 541,-392 559.22,-401.5 558.6,-411.86 577,-421 676.97,-470.63 957.6,-515.15 1069,-522 1105.52,-524.25 1146.28,-523.38 1179.72,-521.79"/>
<polygon fill="#757575" stroke="#757575" points="1180.04,-525.28 1189.85,-521.27 1179.68,-518.29 1180.04,-525.28"/>
</g>
<!-- modules/world.ts&#45;&gt;data/tiles.ts -->
<g id="edge62" class="edge">
<title>modules/world.ts&#45;&gt;data/tiles.ts</title>
<path fill="none" stroke="#757575" d="M488.31,-363.31C500.76,-339.77 532.53,-287.18 577,-267 647.94,-234.81 871.83,-274.15 1033,-305 1042.65,-306.85 1052.87,-309.27 1062.6,-311.81"/>
<polygon fill="#757575" stroke="#757575" points="1061.96,-315.26 1072.53,-314.48 1063.78,-308.5 1061.96,-315.26"/>
</g>
<!-- modules/world.ts&#45;&gt;classes/map.ts -->
<g id="edge60" class="edge">
<title>modules/world.ts&#45;&gt;classes/map.ts</title>
<path fill="none" stroke="#757575" d="M486.08,-363.47C495.55,-335.23 524.22,-262.78 577,-234 626.55,-206.98 692.07,-209.62 738.97,-216.8"/>
<polygon fill="#757575" stroke="#757575" points="738.54,-220.28 748.98,-218.44 739.68,-213.37 738.54,-220.28"/>
</g>
<!-- modules/world.ts&#45;&gt;utils/utils.ts -->
<g id="edge66" class="edge">
<title>modules/world.ts&#45;&gt;utils/utils.ts</title>
<path fill="none" stroke="#757575" d="M533.48,-386.62C536.16,-388.2 538.69,-389.98 541,-392 570.92,-418.24 547.89,-446.86 577,-474 619.47,-513.59 647.27,-493.7 700,-518 792.57,-560.67 801.99,-600.72 899,-632 952.02,-649.1 1016.02,-653.68 1059.64,-654.57"/>
<polygon fill="#757575" stroke="#757575" points="1059.67,-658.07 1069.72,-654.71 1059.77,-651.07 1059.67,-658.07"/>
</g>
<!-- modules/world.ts&#45;&gt;modules/screen.ts -->
<g id="edge64" class="edge">
<title>modules/world.ts&#45;&gt;modules/screen.ts</title>
<path fill="none" stroke="#757575" d="M541.28,-375.5C585.13,-380.12 646.46,-389.24 700,-399 723.04,-403.2 748.93,-408.75 768.38,-414.38"/>
<polygon fill="#757575" stroke="#757575" points="767.61,-417.81 778.2,-417.42 769.68,-411.12 767.61,-417.81"/>
</g>
<!-- modules/world.ts&#45;&gt;modules/sound.ts -->
<g id="edge65" class="edge">
<title>modules/world.ts&#45;&gt;modules/sound.ts</title>
<path fill="none" stroke="#757575" d="M493.07,-386.93C505.31,-401.02 525.73,-425.39 541,-448 559.27,-475.05 552.73,-490.18 577,-512 581.15,-515.73 585.91,-518.98 590.9,-521.79"/>
<polygon fill="#757575" stroke="#757575" points="589.54,-525.03 600.05,-526.42 592.7,-518.78 589.54,-525.03"/>
</g>
<!-- modules/world.ts&#45;&gt;modules/levels.ts -->
<g id="edge63" class="edge">
<title>modules/world.ts&#45;&gt;modules/levels.ts</title>
<path fill="none" stroke="#757575" d="M495.98,-363.42C518.47,-348 564.46,-321.54 597.92,-304.24"/>
<polygon fill="#757575" stroke="#757575" points="599.67,-307.28 607,-299.62 596.5,-301.04 599.67,-307.28"/>
</g>
<!-- modules/levels.ts&#45;&gt;classes/entity.ts -->
<g id="edge29" class="edge">
<title>modules/levels.ts&#45;&gt;classes/entity.ts</title>
<path fill="none" stroke="#757575" d="M650.18,-276.41C666.82,-259.06 700.71,-226.52 736,-209 788.03,-183.17 852.84,-169.07 900.22,-161.63"/>
<polygon fill="#757575" stroke="#757575" points="900.99,-165.06 910.36,-160.1 899.95,-158.14 900.99,-165.06"/>
</g>
<!-- modules/levels.ts&#45;&gt;data/constants.ts -->
<g id="edge30" class="edge">
<title>modules/levels.ts&#45;&gt;data/constants.ts</title>
<path fill="none" stroke="#757575" d="M674.51,-299.53C718.65,-314.2 796.78,-340.55 863,-365 991.33,-412.38 1141.7,-473.23 1210.57,-501.41"/>
<polygon fill="#757575" stroke="#757575" points="1209.55,-504.77 1220.13,-505.32 1212.2,-498.29 1209.55,-504.77"/>
</g>
<!-- modules/levels.ts&#45;&gt;data/tiles.ts -->
<g id="edge31" class="edge">
<title>modules/levels.ts&#45;&gt;data/tiles.ts</title>
<path fill="none" stroke="#757575" d="M699.15,-292.81C792.37,-300.33 971,-314.75 1058.96,-321.84"/>
<polygon fill="#757575" stroke="#757575" points="1058.73,-325.33 1068.97,-322.65 1059.29,-318.36 1058.73,-325.33"/>
</g>
<!-- modules/levels.ts&#45;&gt;modules/controls.ts -->
<g id="edge32" class="edge">
<title>modules/levels.ts&#45;&gt;modules/controls.ts</title>
<path fill="none" stroke="#757575" d="M675.26,-299.53C683.89,-303.31 692.72,-308.1 700,-314 721.56,-331.47 713.83,-348.32 736,-365 783.74,-400.9 817.28,-370.55 863,-409 888.27,-430.26 882.02,-445.68 899,-474 916.3,-502.87 937.68,-535.37 951.33,-555.77"/>
<polygon fill="#757575" stroke="#757575" points="948.53,-557.88 957.01,-564.23 954.34,-553.98 948.53,-557.88"/>
</g>
<!-- modules/levels.ts&#45;&gt;modules/screen.ts -->
<g id="edge33" class="edge">
<title>modules/levels.ts&#45;&gt;modules/screen.ts</title>
<path fill="none" stroke="#757575" d="M678.78,-299.57C686.53,-303.23 694.08,-307.95 700,-314 729.85,-344.49 705.98,-372.68 736,-403 739.68,-406.71 743.97,-409.92 748.54,-412.69"/>
<polygon fill="#757575" stroke="#757575" points="747.13,-415.9 757.6,-417.48 750.4,-409.71 747.13,-415.9"/>
</g>
<!-- modules/levels.ts&#45;&gt;modules/world.ts -->
<g id="edge34" class="edge">
<title>modules/levels.ts&#45;&gt;modules/world.ts</title>
<path fill="none" stroke="#757575" d="M623.97,-299.62C601.41,-315.08 555.29,-341.61 521.83,-358.89"/>
<polygon fill="#757575" stroke="#757575" points="520.08,-355.85 512.75,-363.5 523.25,-362.09 520.08,-355.85"/>
</g>
<!-- modules/mobs.ts&#45;&gt;classes/entity.ts -->
<g id="edge35" class="edge">
<title>modules/mobs.ts&#45;&gt;classes/entity.ts</title>
<path fill="none" stroke="#757575" d="M383.1,-155.47C482.36,-143.9 688.82,-124.42 863,-138 875.08,-138.94 887.89,-140.5 900.2,-142.29"/>
<polygon fill="#757575" stroke="#757575" points="899.99,-145.79 910.4,-143.83 901.03,-138.87 899.99,-145.79"/>
</g>
<!-- modules/mobs.ts&#45;&gt;data/constants.ts -->
<g id="edge36" class="edge">
<title>modules/mobs.ts&#45;&gt;data/constants.ts</title>
<path fill="none" stroke="#757575" d="M334.51,-151.42C351.23,-133.75 385.73,-100.31 422,-83 510.3,-40.86 539.66,-38 637.5,-38 637.5,-38 637.5,-38 967,-38 999.89,-38 1134.92,-114.74 1154,-143 1214.85,-233.12 1159.7,-280.57 1190,-385 1201.9,-426.02 1223.87,-470.91 1237.24,-496.35"/>
<polygon fill="#757575" stroke="#757575" points="1234.27,-498.22 1242.06,-505.39 1240.45,-494.92 1234.27,-498.22"/>
</g>
<!-- modules/mobs.ts&#45;&gt;data/tiles.ts -->
<g id="edge37" class="edge">
<title>modules/mobs.ts&#45;&gt;data/tiles.ts</title>
<path fill="none" stroke="#757575" d="M348.15,-151.45C399.92,-127.78 525.94,-76 637.5,-76 637.5,-76 637.5,-76 800.5,-76 906.89,-76 952.64,-63.27 1033,-133 1085.35,-178.42 1102.77,-264.24 1108.2,-304.33"/>
<polygon fill="#757575" stroke="#757575" points="1104.74,-304.86 1109.44,-314.36 1111.69,-304.01 1104.74,-304.86"/>
</g>
<!-- modules/mobs.ts&#45;&gt;modules/sound.ts -->
<g id="edge38" class="edge">
<title>modules/mobs.ts&#45;&gt;modules/sound.ts</title>
<path fill="none" stroke="#757575" d="M326.61,-174.79C335.1,-211.01 364.72,-322.69 422,-396 474.97,-463.8 502.51,-468.93 577,-512 583.4,-515.7 590.42,-519.19 597.34,-522.33"/>
<polygon fill="#757575" stroke="#757575" points="596.09,-525.61 606.66,-526.4 598.9,-519.19 596.09,-525.61"/>
</g>
<!-- modules/mobs.ts&#45;&gt;modules/world.ts -->
<g id="edge39" class="edge">
<title>modules/mobs.ts&#45;&gt;modules/world.ts</title>
<path fill="none" stroke="#757575" d="M332.64,-174.7C358.24,-209.38 433.9,-311.88 465.92,-355.25"/>
<polygon fill="#757575" stroke="#757575" points="463.13,-357.37 471.89,-363.34 468.77,-353.21 463.13,-357.37"/>
</g>
<!-- modules/player.ts&#45;&gt;data/colors.ts -->
<g id="edge40" class="edge">
<title>modules/player.ts&#45;&gt;data/colors.ts</title>
<path fill="none" stroke="#757575" d="M373.82,-548.65C378.34,-551.18 382.52,-554.26 386,-558 429.19,-604.39 382.29,-646.59 422,-696 489.37,-779.82 529.97,-806 637.5,-806 637.5,-806 637.5,-806 967,-806 1068.48,-806 1098.42,-759.9 1154,-675 1198.21,-607.47 1165.61,-573.94 1190,-497 1202.99,-456.03 1224.6,-410.68 1237.6,-384.93"/>
<polygon fill="#757575" stroke="#757575" points="1240.85,-386.27 1242.29,-375.77 1234.62,-383.08 1240.85,-386.27"/>
</g>
<!-- modules/player.ts&#45;&gt;data/constants.ts -->
<g id="edge41" class="edge">
<title>modules/player.ts&#45;&gt;data/constants.ts</title>
<path fill="none" stroke="#757575" d="M374.94,-548.55C379.12,-551.1 382.92,-554.21 386,-558 469.34,-660.47 331.19,-757.08 422,-853 480.43,-914.71 713.52,-920 798.5,-920 798.5,-920 798.5,-920 967,-920 1051.9,-920 1092.53,-939.56 1154,-881 1204.7,-832.69 1236.79,-609.74 1245.85,-538.76"/>
<polygon fill="#757575" stroke="#757575" points="1249.34,-539.09 1247.11,-528.73 1242.4,-538.22 1249.34,-539.09"/>
</g>
<!-- modules/player.ts&#45;&gt;data/tiles.ts -->
<g id="edge42" class="edge">
<title>modules/player.ts&#45;&gt;data/tiles.ts</title>
<path fill="none" stroke="#757575" d="M368.89,-548.53C440.32,-564.91 583.67,-589.71 700,-559 863.5,-515.83 1030.13,-390.87 1088.62,-344.02"/>
<polygon fill="#757575" stroke="#757575" points="1090.87,-346.7 1096.45,-337.69 1086.47,-341.26 1090.87,-346.7"/>
</g>
<!-- modules/player.ts&#45;&gt;modules/controls.ts -->
<g id="edge43" class="edge">
<title>modules/player.ts&#45;&gt;modules/controls.ts</title>
<path fill="none" stroke="#757575" d="M371.19,-548.51C376.54,-551.07 381.63,-554.19 386,-558 412.97,-581.51 391.57,-611.19 422,-630 502.44,-679.72 787.64,-619.05 909.33,-589.93"/>
<polygon fill="#757575" stroke="#757575" points="910.29,-593.3 919.19,-587.55 908.65,-586.49 910.29,-593.3"/>
</g>
<!-- modules/player.ts&#45;&gt;utils/utils.ts -->
<g id="edge49" class="edge">
<title>modules/player.ts&#45;&gt;utils/utils.ts</title>
<path fill="none" stroke="#757575" d="M372.5,-548.56C377.44,-551.11 382.07,-554.21 386,-558 418.49,-589.35 385.75,-626.08 422,-653 592.6,-779.71 686.62,-678.66 899,-686 958.52,-688.06 974.58,-697.59 1033,-686 1049.01,-682.82 1065.86,-676.29 1079.75,-669.95"/>
<polygon fill="#757575" stroke="#757575" points="1081.31,-673.09 1088.84,-665.64 1078.31,-666.76 1081.31,-673.09"/>
</g>
<!-- modules/player.ts&#45;&gt;modules/display.ts -->
<g id="edge44" class="edge">
<title>modules/player.ts&#45;&gt;modules/display.ts</title>
<path fill="none" stroke="#757575" d="M374.88,-548.6C379.07,-551.14 382.89,-554.23 386,-558 460.85,-648.62 335.28,-740.65 422,-820 488.67,-881.01 759.47,-865.29 891.68,-853.5"/>
<polygon fill="#757575" stroke="#757575" points="892.08,-856.97 901.72,-852.58 891.45,-850 892.08,-856.97"/>
</g>
<!-- modules/player.ts&#45;&gt;modules/screen.ts -->
<g id="edge46" class="edge">
<title>modules/player.ts&#45;&gt;modules/screen.ts</title>
<path fill="none" stroke="#757575" d="M374.78,-525.44C462.78,-505.41 643.25,-464.34 737.75,-442.83"/>
<polygon fill="#757575" stroke="#757575" points="738.75,-446.19 747.73,-440.56 737.2,-439.36 738.75,-446.19"/>
</g>
<!-- modules/player.ts&#45;&gt;modules/sound.ts -->
<g id="edge47" class="edge">
<title>modules/player.ts&#45;&gt;modules/sound.ts</title>
<path fill="none" stroke="#757575" d="M384.03,-529.19C396.56,-527.86 409.69,-526.69 422,-526 474.81,-523.05 488.21,-522.73 541,-526 549.36,-526.52 558.1,-527.28 566.76,-528.19"/>
<polygon fill="#757575" stroke="#757575" points="566.54,-531.68 576.86,-529.3 567.31,-524.73 566.54,-531.68"/>
</g>
<!-- modules/player.ts&#45;&gt;modules/world.ts -->
<g id="edge48" class="edge">
<title>modules/player.ts&#45;&gt;modules/world.ts</title>
<path fill="none" stroke="#757575" d="M330.56,-525.41C344.72,-501.18 380.25,-444.42 422,-408 429.16,-401.75 437.7,-396.14 446,-391.38"/>
<polygon fill="#757575" stroke="#757575" points="447.73,-394.43 454.84,-386.58 444.39,-388.28 447.73,-394.43"/>
</g>
<!-- modules/player.ts&#45;&gt;modules/levels.ts -->
<g id="edge45" class="edge">
<title>modules/player.ts&#45;&gt;modules/levels.ts</title>
<path fill="none" stroke="#757575" d="M326.97,-525.21C335.7,-492.95 364.39,-402.46 422,-355 463.33,-320.95 521.94,-304.16 567.61,-295.91"/>
<polygon fill="#757575" stroke="#757575" points="568.47,-299.31 577.74,-294.18 567.29,-292.41 568.47,-299.31"/>
</g>
</g>
</svg>
